<?xml version="1.0" encoding="UTF-8" standalone="no"?>
<!-- Created with Inkscape (http://www.inkscape.org/) -->

<svg
   width="30.319397mm"
   height="20.360626mm"
   viewBox="0 0 30.319397 20.360626"
   version="1.1"
   id="svg5"
   inkscape:version="1.2.2 (732a01da63, 2022-12-09, custom)"
   sodipodi:docname="taskflow"
   xmlns:inkscape="http://www.inkscape.org/namespaces/inkscape"
   xmlns:sodipodi="http://sodipodi.sourceforge.net/DTD/sodipodi-0.dtd"
   xmlns="http://www.w3.org/2000/svg"
   xmlns:svg="http://www.w3.org/2000/svg">
  <sodipodi:namedview
     id="namedview7"
     pagecolor="#ffffff"
     bordercolor="#000000"
     borderopacity="0.25"
     inkscape:showpageshadow="2"
     inkscape:pageopacity="0.0"
     inkscape:pagecheckerboard="0"
     inkscape:deskcolor="#d1d1d1"
     inkscape:document-units="mm"
     showgrid="false"
     inkscape:zoom="2.3786088"
     inkscape:cx="445.63864"
     inkscape:cy="369.33354"
     inkscape:window-width="1440"
     inkscape:window-height="836"
     inkscape:window-x="0"
     inkscape:window-y="27"
     inkscape:window-maximized="1"
     inkscape:current-layer="text1786" />
  <defs
     id="defs2" />
  <g
     inkscape:label="Camada 1"
     inkscape:groupmode="layer"
     id="layer1"
     transform="translate(-99.926058,-77.970533)">
    <g
       aria-label="task"
       id="text236"
       style="font-weight:bold;font-size:15.4219px;font-family:Ubuntu;-inkscape-font-specification:'Ubuntu, Bold';fill:#28e98c;stroke-width:0.264999;paint-order:stroke fill markers"
       inkscape:export-filename="../2d85dde3/taskflow.svg"
       inkscape:export-xdpi="96"
       inkscape:export-ydpi="96">
      <g
         id="g3032">
        <path
           d="m 99.926069,79.805739 2.297861,-0.370126 v 2.390395 h 2.76052 v 1.912316 h -2.76052 v 2.853051 q 0,0.724829 0.24675,1.156642 0.26217,0.431814 1.03327,0.431814 0.37012,0 0.75567,-0.06169 0.40097,-0.07711 0.72483,-0.200485 l 0.32386,1.788941 q -0.41639,0.169641 -0.92531,0.293016 -0.50893,0.123375 -1.24918,0.123375 -0.94073,0 -1.55761,-0.24675 -0.61687,-0.262173 -0.987,-0.709408 -0.37013,-0.462657 -0.52434,-1.110377 -0.138801,-0.647719 -0.138801,-1.434236 z"
           style="fill:#277ae4;stroke-width:0.265"
           id="path1892" />
        <path
           d="m 109.64183,88.33405 q 0.33928,0 0.64772,-0.01542 0.30844,-0.01542 0.4935,-0.04627 v -1.742675 q -0.13879,-0.03084 -0.41639,-0.06169 -0.27759,-0.03084 -0.50892,-0.03084 -0.32386,0 -0.61688,0.04627 -0.27759,0.03084 -0.4935,0.138797 -0.2159,0.107953 -0.33928,0.293016 -0.12337,0.185063 -0.12337,0.462657 0,0.539766 0.3547,0.755673 0.37012,0.200485 1.00242,0.200485 z m -0.18506,-6.723949 q 1.01785,0 1.69641,0.231329 0.67856,0.231328 1.07953,0.663142 0.41639,0.431813 0.58603,1.048689 0.16964,0.616876 0.16964,1.372549 v 4.780789 q -0.4935,0.107953 -1.37254,0.24675 -0.87905,0.154219 -2.12823,0.154219 -0.78651,0 -1.43423,-0.138797 -0.6323,-0.138797 -1.09496,-0.447235 -0.46266,-0.32386 -0.70941,-0.832783 -0.24675,-0.508922 -0.24675,-1.249174 0,-0.709407 0.2776,-1.202908 0.29301,-0.4935 0.77109,-0.786517 0.47808,-0.293016 1.09496,-0.416391 0.61687,-0.138797 1.28002,-0.138797 0.44723,0 0.78651,0.04627 0.35471,0.03084 0.57061,0.09253 V 84.81786 q 0,-0.586033 -0.3547,-0.940736 -0.3547,-0.354704 -1.23375,-0.354704 -0.58603,0 -1.15665,0.09253 -0.57061,0.07711 -0.987,0.231329 l -0.29301,-1.850628 q 0.20048,-0.06169 0.4935,-0.123375 0.30844,-0.07711 0.66314,-0.123376 0.3547,-0.06169 0.74025,-0.09253 0.40097,-0.04627 0.80194,-0.04627 z"
           style="fill:#277ae4;stroke-width:0.265"
           id="path1894" />
        <path
           d="m 117.39904,88.287784 q 0.6323,0 0.89447,-0.123375 0.26217,-0.123375 0.26217,-0.478079 0,-0.277594 -0.33928,-0.478079 -0.33928,-0.215907 -1.03327,-0.478079 -0.53976,-0.200485 -0.987,-0.416391 -0.43181,-0.215907 -0.74025,-0.508923 -0.30844,-0.308438 -0.47808,-0.724829 -0.16964,-0.416391 -0.16964,-1.002424 0,-1.14122 0.84821,-1.804362 0.8482,-0.663142 2.3287,-0.663142 0.74025,0 1.41882,0.138797 0.67856,0.123376 1.07953,0.277595 l -0.40097,1.78894 q -0.40097,-0.138797 -0.87905,-0.24675 -0.46265,-0.107954 -1.04869,-0.107954 -1.07953,0 -1.07953,0.601454 0,0.138798 0.0463,0.246751 0.0463,0.107953 0.18506,0.215906 0.1388,0.09253 0.37012,0.215907 0.24676,0.107953 0.61688,0.24675 0.75567,0.277595 1.24917,0.555189 0.49351,0.262172 0.7711,0.586032 0.29302,0.308438 0.40097,0.693985 0.12337,0.385548 0.12337,0.894471 0,1.202908 -0.90989,1.819784 -0.89447,0.616876 -2.54461,0.616876 -1.07953,0 -1.80436,-0.185063 -0.70941,-0.185063 -0.98701,-0.308438 l 0.38555,-1.86605 q 0.58603,0.231329 1.20291,0.370126 0.61688,0.123375 1.21833,0.123375 z"
           style="fill:#277ae4;stroke-width:0.265"
           id="path1896" />
        <path
           d="m 124.8478,84.756169 q 0.33928,-0.370126 0.69398,-0.771095 0.37013,-0.400969 0.70941,-0.786517 0.33928,-0.400969 0.6323,-0.755673 0.30844,-0.354704 0.52434,-0.616876 h 2.72968 q -0.81736,0.940736 -1.60388,1.804362 -0.77109,0.848205 -1.69641,1.758097 0.46266,0.416391 0.95616,1.002423 0.4935,0.570611 0.95616,1.187487 0.46266,0.616876 0.8482,1.233752 0.38555,0.616876 0.64772,1.125798 h -2.63714 q -0.24675,-0.400969 -0.57061,-0.879048 -0.30844,-0.493501 -0.66314,-0.97158 -0.35471,-0.493501 -0.75568,-0.940736 -0.38554,-0.447235 -0.77109,-0.755673 v 3.547037 h -2.29787 V 78.340659 l 2.29787,-0.370126 z"
           style="fill:#277ae4;stroke-width:0.265"
           id="path1898" />
      </g>
    </g>
    <g
       aria-label="flow."
       transform="scale(1.03823,0.96317772)"
       id="text1786"
       style="font-weight:bold;font-size:8.72855px;font-family:Ubuntu;-inkscape-font-specification:'Ubuntu, Bold';fill:#277ae4;stroke-width:0.149985;paint-order:stroke fill markers">
      <g
         id="g3038">
        <path
           d="m 98.236659,95.194808 q 0.366599,0 0.60227,0.0611 0.2444,0.0611 0.410242,0.130928 l -0.226942,1.02124 q -0.139657,-0.0611 -0.314228,-0.08728 -0.165842,-0.02619 -0.340413,-0.02619 -0.235671,0 -0.401514,0.06983 -0.157114,0.0611 -0.253128,0.174571 -0.08729,0.113472 -0.130928,0.270586 -0.03491,0.157113 -0.03491,0.340413 v 0.226942 h 1.606053 v 1.08234 h -1.606053 v 3.508872 H 96.24655 v -4.835611 q 0,-0.890312 0.497527,-1.414025 0.506256,-0.523713 1.492582,-0.523713 z m 3.508881,6.860642 q -0.56736,-0.009 -0.92523,-0.1222 -0.34914,-0.11347 -0.55863,-0.31423 -0.20075,-0.20948 -0.279311,-0.49753 -0.06983,-0.29677 -0.06983,-0.66337 v -5.053827 l 1.300551,-0.209485 v 5.001462 q 0,0.17457 0.0262,0.31422 0.0262,0.13966 0.096,0.23568 0.0786,0.096 0.21822,0.15711 0.13966,0.0611 0.37533,0.0786 z"
           style="stroke-width:0.149986"
           id="path1901" />
        <path
           d="m 106.96519,99.663825 q 0,0.541175 -0.15711,0.995055 -0.15711,0.44516 -0.45389,0.76811 -0.29677,0.31423 -0.71574,0.4888 -0.41024,0.17457 -0.92522,0.17457 -0.50626,0 -0.92523,-0.17457 -0.41024,-0.17457 -0.70701,-0.4888 -0.29677,-0.32295 -0.46261,-0.76811 -0.16585,-0.45388 -0.16585,-0.995055 0,-0.54117 0.16585,-0.986326 0.17457,-0.445156 0.47134,-0.759384 0.3055,-0.314227 0.71574,-0.488798 0.41897,-0.174571 0.90777,-0.174571 0.49752,0 0.90777,0.174571 0.41897,0.174571 0.71574,0.488798 0.29677,0.314228 0.46261,0.759384 0.16584,0.445156 0.16584,0.986326 z m -1.32674,0 q 0,-0.60227 -0.2444,-0.942683 -0.23567,-0.349142 -0.68082,-0.349142 -0.44516,0 -0.68956,0.349142 -0.2444,0.340413 -0.2444,0.942683 0,0.602275 0.2444,0.960145 0.2444,0.34914 0.68956,0.34914 0.44515,0 0.68082,-0.34914 0.2444,-0.35787 0.2444,-0.960145 z"
           style="stroke-width:0.149986"
           id="path1903" />
        <path
           d="m 110.65735,99.33214 q -0.17457,0.66337 -0.37533,1.31801 -0.19203,0.65464 -0.41024,1.31801 h -1.01251 q -0.15712,-0.3666 -0.34042,-0.87285 -0.1833,-0.50626 -0.38405,-1.0998 -0.19203,-0.60227 -0.40152,-1.265639 -0.20075,-0.672099 -0.39278,-1.352926 h 1.37038 q 0.0698,0.314228 0.14839,0.689556 0.0873,0.366599 0.17457,0.759384 0.096,0.392784 0.19203,0.794298 0.10474,0.392787 0.20948,0.759387 0.11347,-0.38406 0.21821,-0.785573 0.11348,-0.401513 0.20949,-0.78557 0.10474,-0.392784 0.19203,-0.750655 0.096,-0.366599 0.16584,-0.680827 h 0.94268 q 0.0698,0.314228 0.15712,0.680827 0.0873,0.357871 0.1833,0.750655 0.096,0.384057 0.20075,0.78557 0.10475,0.401513 0.21822,0.785573 0.10474,-0.3666 0.20948,-0.759387 0.10474,-0.401514 0.19203,-0.794298 0.096,-0.392785 0.17457,-0.759384 0.0873,-0.375328 0.15712,-0.689556 h 1.35292 q -0.19203,0.680827 -0.40151,1.352926 -0.20076,0.663369 -0.40152,1.265639 -0.19202,0.59354 -0.38405,1.0998 -0.1833,0.50625 -0.34042,0.87285 h -1.01251 q -0.21821,-0.66337 -0.4277,-1.31801 -0.20948,-0.65464 -0.38405,-1.31801 z"
           style="stroke-width:0.149986"
           id="path1905" />
        <path
           d="m 115.98175,101.27861 q 0,0.39278 -0.25313,0.60227 -0.2444,0.20075 -0.55863,0.20075 -0.31422,0 -0.56735,-0.20075 -0.2444,-0.20949 -0.2444,-0.60227 0,-0.39279 0.2444,-0.59354 0.25313,-0.20949 0.56735,-0.20949 0.31423,0 0.55863,0.20949 0.25313,0.20075 0.25313,0.59354 z"
           style="fill:#27e455"
           id="path1907" />
      </g>
    </g>
  </g>
</svg>
